ffmpeg started on 2025-05-05 at 19:34:14
Report written to "D:\Convert\FFMetrics\reports\ssim_report-6.txt"
Log level: 32
Command line:
ffmpeg -hide_banner -nostdin -i "G:\\\xc0\xed\xe8\xec\xe5\\\xce\xed\xe3\xee\xe8\xed\xe3\xe8\\!_35_\xcb\xe5\xf2\xee_2024\\JamClub\\\xdf \xef\xe0\xf0\xe8\xf0\xee\xe2\xe0\xeb \xe2\xf1\xb8 \xe2\xf0\xe5\xec\xff, \xf7\xf2\xee\xe1\xfb \xf1\xf2\xe0\xf2\xfc \xf1\xe8\xeb\xfc\xed\xe5\xe9\xf8\xe8\xec \xe0\xe2\xe0\xed\xf2\xfe\xf0\xe8\xf1\xf2\xee\xec\\JamClub_I_Parry_Everything_02_1080p_HEVC.mkv" -i "G:\\\xc0\xed\xe8\xec\xe5\\\xce\xed\xe3\xee\xe8\xed\xe3\xe8\\!_35_\xcb\xe5\xf2\xee_2024\\JamClub\\\xdf \xef\xe0\xf0\xe8\xf0\xee\xe2\xe0\xeb \xe2\xf1\xb8 \xe2\xf0\xe5\xec\xff, \xf7\xf2\xee\xe1\xfb \xf1\xf2\xe0\xf2\xfc \xf1\xe8\xeb\xfc\xed\xe5\xe9\xf8\xe8\xec \xe0\xe2\xe0\xed\xf2\xfe\xf0\xe8\xf1\xf2\xee\xec\\JamClub_I_Parry_Everything_02_1080p.mp4" -lavfi "[0:v]settb=AVTB,setpts=PTS-STARTPTS,format=pix_fmts=yuv420p10,fps=24000/1001,scale=1920:1080:flags=bicubic[main];[1:v]settb=AVTB,setpts=PTS-STARTPTS,format=pix_fmts=yuv420p,fps=24000/1001,scale=1920:1080:flags=bicubic[ref];[main][ref]ssim=eof_action=endall:stats_file='D\\:/Convert/FFMetrics/logs/ssim_logfile-6.txt'" -f null -
Input #0, matroska,webm, from 'G:\Аниме\Онгоинги\!_35_Лето_2024\JamClub\Я парировал всё время, чтобы стать сильнейшим авантюристом\JamClub_I_Parry_Everything_02_1080p_HEVC.mkv':
  Metadata:
    COMPATIBLE_BRANDS: isomiso2avc1mp41
    MAJOR_BRAND     : isom
    MINOR_VERSION   : 512
    ENCODER         : Lavf61.7.100
  Duration: 00:24:03.71, start: -0.001000, bitrate: 1014 kb/s
  Stream #0:0: Video: hevc (Main 10), yuv420p10le(tv, bt709, progressive), 1920x1080 [SAR 1:1 DAR 16:9], 23.98 fps, 23.98 tbr, 1k tbn (default)
      Metadata:
        HANDLER_NAME    : VideoHandler
        VENDOR_ID       : [0][0][0][0]
        ENCODER         : Lavc61.19.100 libx265
        BPS             : 816071
        DURATION        : 00:24:03.608708333
        NUMBER_OF_FRAMES: 34612
        NUMBER_OF_BYTES : 147260895
        _STATISTICS_WRITING_APP: mkvpropedit v66.0.0 ('Josie') 64-bit
        _STATISTICS_WRITING_DATE_UTC: 2025-05-05 09:51:53
        _STATISTICS_TAGS: BPS DURATION NUMBER_OF_FRAMES NUMBER_OF_BYTES
  Stream #0:1(eng): Audio: aac (LC), 48000 Hz, stereo, fltp (default)
      Metadata:
        HANDLER_NAME    : SoundHandler
        VENDOR_ID       : [0][0][0][0]
        ENCODER         : Lavc61.19.100 aac
        BPS             : 194705
        DURATION        : 00:24:03.672000000
        NUMBER_OF_FRAMES: 67673
        NUMBER_OF_BYTES : 35136270
        _STATISTICS_WRITING_APP: mkvpropedit v66.0.0 ('Josie') 64-bit
        _STATISTICS_WRITING_DATE_UTC: 2025-05-05 09:51:53
        _STATISTICS_TAGS: BPS DURATION NUMBER_OF_FRAMES NUMBER_OF_BYTES
Input #1, mov,mp4,m4a,3gp,3g2,mj2, from 'G:\Аниме\Онгоинги\!_35_Лето_2024\JamClub\Я парировал всё время, чтобы стать сильнейшим авантюристом\JamClub_I_Parry_Everything_02_1080p.mp4':
  Metadata:
    major_brand     : isom
    minor_version   : 512
    compatible_brands: isomiso2avc1mp41
    encoder         : Lavf60.16.100
  Duration: 00:24:03.69, start: 0.000000, bitrate: 3668 kb/s
  Stream #1:0[0x1](und): Video: h264 (High) (avc1 / 0x31637661), yuv420p(progressive), 1920x1080 [SAR 1:1 DAR 16:9], 3470 kb/s, 23.98 fps, 23.98 tbr, 90k tbn (default)
      Metadata:
        handler_name    : VideoHandler
        vendor_id       : [0][0][0][0]
  Stream #1:1[0x2](eng): Audio: aac (LC) (mp4a / 0x6134706D), 48000 Hz, stereo, fltp, 191 kb/s (default)
      Metadata:
        handler_name    : SoundHandler
        vendor_id       : [0][0][0][0]
Stream mapping:
  Stream #0:0 (hevc) -> settb:default
  Stream #1:0 (h264) -> settb:default
  ssim:default -> Stream #0:0 (wrapped_avframe)
  Stream #0:1 -> #0:1 (aac (native) -> pcm_s16le (native))
Output #0, null, to 'pipe:':
  Metadata:
    COMPATIBLE_BRANDS: isomiso2avc1mp41
    MAJOR_BRAND     : isom
    MINOR_VERSION   : 512
    encoder         : Lavf61.7.100
  Stream #0:0: Video: wrapped_avframe, yuv420p10le(tv, bt709, progressive), 1920x1080 [SAR 1:1 DAR 16:9], q=2-31, 200 kb/s, 23.98 fps, 23.98 tbn
      Metadata:
        encoder         : Lavc61.19.100 wrapped_avframe
  Stream #0:1(eng): Audio: pcm_s16le, 48000 Hz, stereo, s16, 1536 kb/s (default)
      Metadata:
        HANDLER_NAME    : SoundHandler
        VENDOR_ID       : [0][0][0][0]
        _STATISTICS_TAGS: BPS DURATION NUMBER_OF_FRAMES NUMBER_OF_BYTES
        BPS             : 194705
        DURATION        : 00:24:03.672000000
        NUMBER_OF_FRAMES: 67673
        NUMBER_OF_BYTES : 35136270
        _STATISTICS_WRITING_APP: mkvpropedit v66.0.0 ('Josie') 64-bit
        _STATISTICS_WRITING_DATE_UTC: 2025-05-05 09:51:53
        encoder         : Lavc61.19.100 pcm_s16le
frame=  104 fps=0.0 q=-0.0 size=N/A time=00:00:04.33 bitrate=N/A speed=8.49x    frame=  268 fps=259 q=-0.0 size=N/A time=00:00:11.17 bitrate=N/A speed=10.8x    frame=  462 fps=301 q=-0.0 size=N/A time=00:00:19.26 bitrate=N/A speed=12.5x    frame=  725 fps=351 q=-0.0 size=N/A time=00:00:30.23 bitrate=N/A speed=14.6x    frame=  978 fps=381 q=-0.0 size=N/A time=00:00:40.79 bitrate=N/A speed=15.9x    frame= 1216 fps=394 q=-0.0 size=N/A time=00:00:50.71 bitrate=N/A speed=16.4x    frame= 1481 fps=411 q=-0.0 size=N/A time=00:01:01.77 bitrate=N/A speed=17.1x    frame= 1774 fps=430 q=-0.0 size=N/A time=00:01:13.99 bitrate=N/A speed=17.9x    frame= 2026 fps=437 q=-0.0 size=N/A time=00:01:24.50 bitrate=N/A speed=18.2x    frame= 2251 fps=436 q=-0.0 size=N/A time=00:01:33.88 bitrate=N/A speed=18.2x    frame= 2459 fps=434 q=-0.0 size=N/A time=00:01:42.56 bitrate=N/A speed=18.1x    frame= 2683 fps=433 q=-0.0 size=N/A time=00:01:51.90 bitrate=N/A speed=18.1x    frame= 2838 fps=424 q=-0.0 size=N/A time=00:01:58.36 bitrate=N/A speed=17.7x    frame= 3034 fps=420 q=-0.0 size=N/A time=00:02:06.54 bitrate=N/A speed=17.5x    frame= 3245 fps=420 q=-0.0 size=N/A time=00:02:15.34 bitrate=N/A speed=17.5x    frame= 3437 fps=417 q=-0.0 size=N/A time=00:02:23.35 bitrate=N/A speed=17.4x    frame= 3572 fps=408 q=-0.0 size=N/A time=00:02:28.98 bitrate=N/A speed=  17x    frame= 3752 fps=404 q=-0.0 size=N/A time=00:02:36.48 bitrate=N/A speed=16.9x    frame= 3923 fps=400 q=-0.0 size=N/A time=00:02:43.62 bitrate=N/A speed=16.7x    frame= 4147 fps=402 q=-0.0 size=N/A time=00:02:52.96 bitrate=N/A speed=16.8x    frame= 4398 fps=406 q=-0.0 size=N/A time=00:03:03.43 bitrate=N/A speed=16.9x    frame= 4683 fps=413 q=-0.0 size=N/A time=00:03:15.32 bitrate=N/A speed=17.2x    frame= 4922 fps=415 q=-0.0 size=N/A time=00:03:25.28 bitrate=N/A speed=17.3x    frame= 5190 fps=419 q=-0.0 size=N/A time=00:03:36.46 bitrate=N/A speed=17.5x    frame= 5443 fps=422 q=-0.0 size=N/A time=00:03:47.01 bitrate=N/A speed=17.6x    frame= 5700 fps=425 q=-0.0 size=N/A time=00:03:57.73 bitrate=N/A speed=17.7x    frame= 5981 fps=430 q=-0.0 size=N/A time=00:04:09.45 bitrate=N/A speed=17.9x    frame= 6234 fps=432 q=-0.0 size=N/A time=00:04:20.00 bitrate=N/A speed=  18x    frame= 6499 fps=435 q=-0.0 size=N/A time=00:04:31.06 bitrate=N/A speed=18.1x    frame= 6758 fps=437 q=-0.0 size=N/A time=00:04:41.86 bitrate=N/A speed=18.2x    frame= 7015 fps=439 q=-0.0 size=N/A time=00:04:52.58 bitrate=N/A speed=18.3x    frame= 7269 fps=441 q=-0.0 size=N/A time=00:05:03.17 bitrate=N/A speed=18.4x    frame= 7537 fps=443 q=-0.0 size=N/A time=00:05:14.35 bitrate=N/A speed=18.5x    frame= 7813 fps=446 q=-0.0 size=N/A time=00:05:25.86 bitrate=N/A speed=18.6x    frame= 8087 fps=448 q=-0.0 size=N/A time=00:05:37.29 bitrate=N/A speed=18.7x    frame= 8363 fps=451 q=-0.0 size=N/A time=00:05:48.80 bitrate=N/A speed=18.8x    frame= 8623 fps=452 q=-0.0 size=N/A time=00:05:59.65 bitrate=N/A speed=18.9x    frame= 8884 fps=454 q=-0.0 size=N/A time=00:06:10.53 bitrate=N/A speed=18.9x    frame= 9157 fps=455 q=-0.0 size=N/A time=00:06:21.92 bitrate=N/A speed=  19x    frame= 9413 fps=456 q=-0.0 size=N/A time=00:06:32.60 bitrate=N/A speed=  19x    frame= 9671 fps=458 q=-0.0 size=N/A time=00:06:43.36 bitrate=N/A speed=19.1x    frame= 9943 fps=459 q=-0.0 size=N/A time=00:06:54.70 bitrate=N/A speed=19.2x    frame=10217 fps=461 q=-0.0 size=N/A time=00:07:06.13 bitrate=N/A speed=19.2x    frame=10487 fps=462 q=-0.0 size=N/A time=00:07:17.39 bitrate=N/A speed=19.3x    frame=10760 fps=464 q=-0.0 size=N/A time=00:07:28.78 bitrate=N/A speed=19.3x    frame=11019 fps=465 q=-0.0 size=N/A time=00:07:39.58 bitrate=N/A speed=19.4x    frame=11263 fps=465 q=-0.0 size=N/A time=00:07:49.76 bitrate=N/A speed=19.4x    frame=11493 fps=465 q=-0.0 size=N/A time=00:07:59.35 bitrate=N/A speed=19.4x    frame=11717 fps=464 q=-0.0 size=N/A time=00:08:08.69 bitrate=N/A speed=19.3x    frame=11996 fps=465 q=-0.0 size=N/A time=00:08:20.33 bitrate=N/A speed=19.4x    frame=12264 fps=466 q=-0.0 size=N/A time=00:08:31.51 bitrate=N/A speed=19.5x    frame=12519 fps=467 q=-0.0 size=N/A time=00:08:42.14 bitrate=N/A speed=19.5x    frame=12748 fps=467 q=-0.0 size=N/A time=00:08:51.69 bitrate=N/A speed=19.5x    frame=13022 fps=468 q=-0.0 size=N/A time=00:09:03.12 bitrate=N/A speed=19.5x    frame=13300 fps=469 q=-0.0 size=N/A time=00:09:14.72 bitrate=N/A speed=19.6x    frame=13577 fps=470 q=-0.0 size=N/A time=00:09:26.27 bitrate=N/A speed=19.6x    frame=13783 fps=469 q=-0.0 size=N/A time=00:09:34.86 bitrate=N/A speed=19.6x    frame=14054 fps=470 q=-0.0 size=N/A time=00:09:46.16 bitrate=N/A speed=19.6x    frame=14285 fps=470 q=-0.0 size=N/A time=00:09:55.80 bitrate=N/A speed=19.6x    frame=14548 fps=470 q=-0.0 size=N/A time=00:10:06.77 bitrate=N/A speed=19.6x    frame=14820 fps=471 q=-0.0 size=N/A time=00:10:18.11 bitrate=N/A speed=19.7x    frame=15099 fps=472 q=-0.0 size=N/A time=00:10:29.75 bitrate=N/A speed=19.7x    frame=15336 fps=472 q=-0.0 size=N/A time=00:10:39.63 bitrate=N/A speed=19.7x    frame=15587 fps=472 q=-0.0 size=N/A time=00:10:50.10 bitrate=N/A speed=19.7x    frame=15828 fps=472 q=-0.0 size=N/A time=00:11:00.15 bitrate=N/A speed=19.7x    frame=16067 fps=472 q=-0.0 size=N/A time=00:11:10.12 bitrate=N/A speed=19.7x    frame=16337 fps=473 q=-0.0 size=N/A time=00:11:21.38 bitrate=N/A speed=19.7x    frame=16600 fps=474 q=-0.0 size=N/A time=00:11:32.35 bitrate=N/A speed=19.8x    frame=16837 fps=473 q=-0.0 size=N/A time=00:11:42.24 bitrate=N/A speed=19.7x    frame=17101 fps=474 q=-0.0 size=N/A time=00:11:53.25 bitrate=N/A speed=19.8x    frame=17359 fps=474 q=-0.0 size=N/A time=00:12:04.01 bitrate=N/A speed=19.8x    frame=17626 fps=475 q=-0.0 size=N/A time=00:12:15.15 bitrate=N/A speed=19.8x    frame=17876 fps=475 q=-0.0 size=N/A time=00:12:25.57 bitrate=N/A speed=19.8x    frame=18116 fps=475 q=-0.0 size=N/A time=00:12:35.58 bitrate=N/A speed=19.8x    frame=18359 fps=475 q=-0.0 size=N/A time=00:12:45.72 bitrate=N/A speed=19.8x    frame=18618 fps=475 q=-0.0 size=N/A time=00:12:56.52 bitrate=N/A speed=19.8x    frame=18892 fps=476 q=-0.0 size=N/A time=00:13:07.95 bitrate=N/A speed=19.8x    frame=19143 fps=476 q=-0.0 size=N/A time=00:13:18.42 bitrate=N/A speed=19.9x    frame=19405 fps=476 q=-0.0 size=N/A time=00:13:29.35 bitrate=N/A speed=19.9x    frame=19666 fps=477 q=-0.0 size=N/A time=00:13:40.23 bitrate=N/A speed=19.9x    frame=19917 fps=477 q=-0.0 size=N/A time=00:13:50.70 bitrate=N/A speed=19.9x    frame=20176 fps=477 q=-0.0 size=N/A time=00:14:01.50 bitrate=N/A speed=19.9x    frame=20448 fps=478 q=-0.0 size=N/A time=00:14:12.85 bitrate=N/A speed=19.9x    frame=20700 fps=478 q=-0.0 size=N/A time=00:14:23.36 bitrate=N/A speed=19.9x    frame=20945 fps=478 q=-0.0 size=N/A time=00:14:33.58 bitrate=N/A speed=19.9x    frame=21215 fps=478 q=-0.0 size=N/A time=00:14:44.84 bitrate=N/A speed=  20x    frame=21475 fps=479 q=-0.0 size=N/A time=00:14:55.68 bitrate=N/A speed=  20x    frame=21727 fps=479 q=-0.0 size=N/A time=00:15:06.19 bitrate=N/A speed=  20x    frame=21992 fps=479 q=-0.0 size=N/A time=00:15:17.24 bitrate=N/A speed=  20x    frame=22259 fps=480 q=-0.0 size=N/A time=00:15:28.38 bitrate=N/A speed=  20x    frame=22530 fps=480 q=-0.0 size=N/A time=00:15:39.68 bitrate=N/A speed=  20x    frame=22800 fps=480 q=-0.0 size=N/A time=00:15:50.95 bitrate=N/A speed=  20x    frame=23057 fps=481 q=-0.0 size=N/A time=00:16:01.66 bitrate=N/A speed=20.1x    frame=23286 fps=480 q=-0.0 size=N/A time=00:16:11.22 bitrate=N/A speed=  20x    frame=23537 fps=480 q=-0.0 size=N/A time=00:16:21.68 bitrate=N/A speed=  20x    frame=23787 fps=481 q=-0.0 size=N/A time=00:16:32.11 bitrate=N/A speed=  20x    frame=24047 fps=481 q=-0.0 size=N/A time=00:16:42.96 bitrate=N/A speed=  20x    frame=24289 fps=481 q=-0.0 size=N/A time=00:16:53.05 bitrate=N/A speed=  20x    frame=24543 fps=481 q=-0.0 size=N/A time=00:17:03.64 bitrate=N/A speed=20.1x    frame=24802 fps=481 q=-0.0 size=N/A time=00:17:14.45 bitrate=N/A speed=20.1x    frame=25053 fps=481 q=-0.0 size=N/A time=00:17:24.91 bitrate=N/A speed=20.1x    frame=25307 fps=481 q=-0.0 size=N/A time=00:17:35.51 bitrate=N/A speed=20.1x    frame=25579 fps=482 q=-0.0 size=N/A time=00:17:46.85 bitrate=N/A speed=20.1x    frame=25825 fps=482 q=-0.0 size=N/A time=00:17:57.11 bitrate=N/A speed=20.1x    frame=26078 fps=482 q=-0.0 size=N/A time=00:18:07.66 bitrate=N/A speed=20.1x    frame=26325 fps=482 q=-0.0 size=N/A time=00:18:17.97 bitrate=N/A speed=20.1x    frame=26602 fps=482 q=-0.0 size=N/A time=00:18:29.52 bitrate=N/A speed=20.1x    frame=26875 fps=482 q=-0.0 size=N/A time=00:18:40.91 bitrate=N/A speed=20.1x    frame=27138 fps=483 q=-0.0 size=N/A time=00:18:51.88 bitrate=N/A speed=20.1x    frame=27413 fps=483 q=-0.0 size=N/A time=00:19:03.35 bitrate=N/A speed=20.2x    frame=27665 fps=483 q=-0.0 size=N/A time=00:19:13.86 bitrate=N/A speed=20.2x    frame=27901 fps=483 q=-0.0 size=N/A time=00:19:23.70 bitrate=N/A speed=20.1x    frame=28165 fps=483 q=-0.0 size=N/A time=00:19:34.71 bitrate=N/A speed=20.2x    frame=28417 fps=483 q=-0.0 size=N/A time=00:19:45.22 bitrate=N/A speed=20.2x    frame=28650 fps=483 q=-0.0 size=N/A time=00:19:54.94 bitrate=N/A speed=20.1x    frame=28909 fps=483 q=-0.0 size=N/A time=00:20:05.74 bitrate=N/A speed=20.2x    frame=29180 fps=484 q=-0.0 size=N/A time=00:20:17.04 bitrate=N/A speed=20.2x    frame=29439 fps=484 q=-0.0 size=N/A time=00:20:27.85 bitrate=N/A speed=20.2x    frame=29683 fps=484 q=-0.0 size=N/A time=00:20:38.02 bitrate=N/A speed=20.2x    frame=29962 fps=484 q=-0.0 size=N/A time=00:20:49.66 bitrate=N/A speed=20.2x    frame=30238 fps=484 q=-0.0 size=N/A time=00:21:01.17 bitrate=N/A speed=20.2x    frame=30527 fps=485 q=-0.0 size=N/A time=00:21:13.23 bitrate=N/A speed=20.2x    frame=30765 fps=485 q=-0.0 size=N/A time=00:21:23.15 bitrate=N/A speed=20.2x    frame=31014 fps=485 q=-0.0 size=N/A time=00:21:33.54 bitrate=N/A speed=20.2x    frame=31276 fps=485 q=-0.0 size=N/A time=00:21:44.46 bitrate=N/A speed=20.2x    frame=31548 fps=485 q=-0.0 size=N/A time=00:21:55.81 bitrate=N/A speed=20.2x    frame=31806 fps=486 q=-0.0 size=N/A time=00:22:06.57 bitrate=N/A speed=20.3x    frame=32091 fps=486 q=-0.0 size=N/A time=00:22:18.46 bitrate=N/A speed=20.3x    frame=32332 fps=486 q=-0.0 size=N/A time=00:22:28.51 bitrate=N/A speed=20.3x    frame=32594 fps=486 q=-0.0 size=N/A time=00:22:39.44 bitrate=N/A speed=20.3x    frame=32827 fps=486 q=-0.0 size=N/A time=00:22:49.15 bitrate=N/A speed=20.3x    frame=32986 fps=484 q=-0.0 size=N/A time=00:22:55.79 bitrate=N/A speed=20.2x    frame=33182 fps=484 q=-0.0 size=N/A time=00:23:03.96 bitrate=N/A speed=20.2x    frame=33406 fps=483 q=-0.0 size=N/A time=00:23:13.30 bitrate=N/A speed=20.2x    frame=33603 fps=483 q=-0.0 size=N/A time=00:23:21.52 bitrate=N/A speed=20.1x    frame=33780 fps=482 q=-0.0 size=N/A time=00:23:28.90 bitrate=N/A speed=20.1x    frame=33930 fps=480 q=-0.0 size=N/A time=00:23:35.16 bitrate=N/A speed=  20x    frame=34131 fps=480 q=-0.0 size=N/A time=00:23:43.54 bitrate=N/A speed=  20x    frame=34343 fps=479 q=-0.0 size=N/A time=00:23:52.38 bitrate=N/A speed=  20x    frame=34539 fps=478 q=-0.0 size=N/A time=00:24:00.56 bitrate=N/A speed=19.9x    [Parsed_ssim_10 @ 00000265076555c0] SSIM Y:0.995117 (23.112761) U:0.994959 (22.975011) V:0.995551 (23.516905) All:0.995163 (23.153948)
[out#0/null @ 000002657fab5ec0] video:14872KiB audio:270692KiB subtitle:0KiB other streams:0KiB global headers:0KiB muxing overhead: unknown
frame=34612 fps=478 q=-0.0 Lsize=N/A time=00:24:03.60 bitrate=N/A speed=19.9x    
